<?xml version="1.0" encoding="UTF-8" standalone="no"?>
<!-- Generator: Adobe Illustrator 16.0.3, SVG Export Plug-In . SVG Version: 6.00 Build 0)  -->

<svg
   xmlns:dc="http://purl.org/dc/elements/1.1/"
   xmlns:cc="http://creativecommons.org/ns#"
   xmlns:rdf="http://www.w3.org/1999/02/22-rdf-syntax-ns#"
   xmlns:svg="http://www.w3.org/2000/svg"
   xmlns="http://www.w3.org/2000/svg"
   xmlns:sodipodi="http://sodipodi.sourceforge.net/DTD/sodipodi-0.dtd"
   xmlns:inkscape="http://www.inkscape.org/namespaces/inkscape"
   version="1.1"
   id="Layer_1"
   x="0px"
   y="0px"
   width="390px"
   height="390px"
   viewBox="0 0 390 390"
   enable-background="new 0 0 390 390"
   xml:space="preserve"
   sodipodi:docname="plate.svg"
   inkscape:version="0.92.2 5c3e80d, 2017-08-06"><metadata
     id="metadata129"><rdf:RDF><cc:Work
         rdf:about=""><dc:format>image/svg+xml</dc:format><dc:type
           rdf:resource="http://purl.org/dc/dcmitype/StillImage" /></cc:Work></rdf:RDF></metadata><defs
     id="defs127"><clipPath
       id="clipPath3859"
       clipPathUnits="userSpaceOnUse"><path
         inkscape:connector-curvature="0"
         id="path3857"
         d="M 0,343.5 H 366 V 0 H 0 Z" /></clipPath></defs><sodipodi:namedview
     pagecolor="#ffffff"
     bordercolor="#666666"
     borderopacity="1"
     objecttolerance="10"
     gridtolerance="10"
     guidetolerance="10"
     inkscape:pageopacity="0"
     inkscape:pageshadow="2"
     inkscape:window-width="2560"
     inkscape:window-height="1382"
     id="namedview125"
     showgrid="false"
     inkscape:zoom="1.2102564"
     inkscape:cx="292.10101"
     inkscape:cy="-21.80012"
     inkscape:window-x="0"
     inkscape:window-y="0"
     inkscape:window-maximized="1"
     inkscape:current-layer="Layer_1" /><circle
     fill="#F7F7F7"
     cx="195"
     cy="195"
     r="195"
     id="circle2" /><g
     id="g8"><path
       fill="#FFFFFF"
       d="M195,358c-89.878,0-163-73.121-163-163c0-89.878,73.122-163,163-163c89.879,0,163,73.122,163,163   C358,284.879,284.879,358,195,358z"
       id="path4" /><path
       fill="#EEEEEE"
       d="M312.38,77.62C281.026,46.267,239.341,29,195,29c-44.34,0-86.026,17.267-117.38,48.62   C46.267,108.974,29,150.66,29,195c0,44.341,17.267,86.026,48.62,117.38C108.974,343.733,150.66,361,195,361   c44.341,0,86.027-17.267,117.38-48.62C343.733,281.027,361,239.341,361,195C361,150.66,343.733,108.974,312.38,77.62z M195,355   c-88.366,0-160-71.634-160-160c0-88.366,71.634-160,160-160c88.366,0,160,71.634,160,160C355,283.366,283.366,355,195,355z"
       id="path6" /></g><g
     id="g122"><path
       fill="#A83223"
       d="M105.622,116.939l0.309,0.632v-0.801C105.828,116.829,105.725,116.883,105.622,116.939z"
       id="path120" /></g><g
     transform="matrix(0.79354516,0,0,-0.79354516,51.369506,325.80615)"
     inkscape:label="logo_pizza_final_2018_outlines"
     id="g3851"><g
       id="g3853"><g
         clip-path="url(#clipPath3859)"
         id="g3855"><g
           transform="translate(298,134.375)"
           id="g3861"><path
             inkscape:connector-curvature="0"
             id="path3863"
             style="fill:#990013;fill-opacity:1;fill-rule:nonzero;stroke:none"
             d="M 0,0 C 8.942,17.128 26.598,54.529 34.833,69.625 21.132,77.243 6.499,84.625 -7,91.958 L -41,20.93 C -28.258,13.874 -17.909,9.125 0,0" /></g><g
           transform="translate(295.6914,251.3604)"
           id="g3865"><path
             inkscape:connector-curvature="0"
             id="path3867"
             style="fill:#a82f09;fill-opacity:1;fill-rule:nonzero;stroke:none"
             d="m 0,0 c 0,0 -1.168,8.449 -3.023,9.746 -58.918,29.461 -157.332,38.426 -226.5,-0.012 -2.324,-1.296 -3.652,-9.695 -3.652,-9.695 l 117.327,-235.066 z" /></g><g
           transform="translate(63.584,138.0488)"
           id="g3869"><path
             inkscape:connector-curvature="0"
             id="path3871"
             style="fill:#990013;fill-opacity:1;fill-rule:nonzero;stroke:none"
             d="m 0,0 c -8.242,14.917 -27.125,49.828 -35.25,64.869 15.333,9.166 23.541,13.125 38.752,22.29 L 43.499,23.979 C 30.757,16.924 17.196,9.667 0,0" /></g><g
           transform="translate(292.668,261.1064)"
           id="g3873"><path
             inkscape:connector-curvature="0"
             id="path3875"
             style="fill:#ffa612;fill-opacity:1;fill-rule:nonzero;stroke:none"
             d="M 0,0 C -32.465,20.727 -72.402,31.762 -113.211,31.125 -152.086,30.52 -191.75,19.215 -226.5,-0.012 l 113.676,-233.212 z" /></g><g
           transform="translate(90.2349,255.249)"
           id="g3877"><path
             inkscape:connector-curvature="0"
             id="path3879"
             style="fill:#a82f09;fill-opacity:1;fill-rule:nonzero;stroke:none"
             d="M 0,0 V 17.502 C -1.371,16.921 -2.739,16.333 -4.101,15.728 V 0 h -9.838 -4.1 v -4.1 -2.552 l 4.1,-8.41 v 1.123 9.839 h 9.838 v -9.839 -4.101 -17.207 L 0,-43.66 v 1.841 23.779 h 23.779 4.1 v 4.101 9.839 h 23.779 v -23.779 -4.1 -13.939 h 4.1 v 13.939 h 23.778 4.101 v 4.1 9.839 h 9.838 V -41.819 H 65.598 v -4.099 h 27.877 4.1 v 4.099 23.779 h 37.718 v -9.839 -4.1 h 4.1 23.779 v -9.84 -4.099 -9.84 h -27.879 v -4.1 h 27.879 4.1 v 4.1 9.84 h 9.84 v -0.568 l 2.258,4.667 h -2.258 -9.84 v 9.84 4.1 h -4.1 -23.779 v 9.839 4.101 9.839 h 9.838 4.1 V 0 23.779 h 12.859 c -3.992,1.491 -8.047,2.855 -12.152,4.1 h -0.707 -4.1 V 23.779 0 h -9.838 v 9.84 4.099 17.803 c -1.363,0.306 -2.728,0.602 -4.1,0.882 V 13.939 H 121.352 V 9.84 h 13.941 V 0 -4.1 -13.939 h -37.718 -4.1 -9.838 -4.101 v -4.101 -9.839 H 55.758 V -4.1 0 h -4.1 -23.779 -4.1 v -4.1 -9.839 H 0 V -4.1 Z" /></g><g
           transform="translate(183.71,97.8174)"
           id="g3881"><path
             inkscape:connector-curvature="0"
             id="path3883"
             style="fill:#a82f09;fill-opacity:1;fill-rule:nonzero;stroke:none"
             d="m 0,0 h 4.1 25.865 l 1.984,4.1 H 4.1 v 9.839 4.1 H 0 -9.838 V 41.818 H 4.1 v 4.1 H -9.838 v 9.84 4.099 37.717 h 23.776 4.101 v 4.1 27.878 h -4.101 v -27.878 h -23.776 -4.101 v -4.1 -37.717 h -23.778 -4.1 -9.839 v 23.777 h 13.939 v 4.1 h -13.939 v 9.84 h 23.779 V 73.795 h -13.94 v -4.099 h 13.94 4.099 v 4.099 23.779 4.1 h -4.099 -23.779 v 23.779 4.099 13.94 h -4.1 v -13.94 h -23.78 -4.1 v -4.099 -23.779 h -3.942 l 1.998,-4.1 h 1.944 4.1 v 4.1 23.779 h 23.78 v -23.779 -4.1 -9.84 -4.1 -23.777 -4.099 -19.367 l 4.1,-8.412 v 27.779 h 9.839 v -9.805 h 4.1 v 9.805 h 23.778 v -9.84 -4.1 -23.779 -4.1 V 4.1 h -23.778 v 23.779 h 9.84 v -13.94 h 4.099 v 13.94 4.1 14.787 h -4.099 V 31.979 h -9.84 -4.1 V 27.879 7.793 L -38.018,0 h 0.301 23.778 v -9.84 -4.101 H -9.838 4.1 V -9.84 H -9.838 V 0 4.1 13.939 H 0 V 4.1 Z" /></g><g
           transform="translate(188.6846,46.1592)"
           id="g3885"><path
             inkscape:connector-curvature="0"
             id="path3887"
             style="fill:#a82f09;fill-opacity:1;fill-rule:nonzero;stroke:none"
             d="m 0,0 h -14.813 v 13.939 h -4.101 V 2.258 l 4.101,-8.412 v 2.052 h 12.829 z" /></g><g
           transform="translate(118.1138,171.6128)"
           id="g3889"><path
             inkscape:connector-curvature="0"
             id="path3891"
             style="fill:#a82f09;fill-opacity:1;fill-rule:nonzero;stroke:none"
             d="m 0,0 h -4.1 -4.293 l 1.998,-4.1 H -4.1 V -8.808 L 0,-17.217 V -4.1 Z" /></g><g
           transform="translate(201.749,73.1631)"
           id="g3893"><path
             inkscape:connector-curvature="0"
             id="path3895"
             style="fill:#a82f09;fill-opacity:1;fill-rule:nonzero;stroke:none"
             d="m 0,0 v 10.713 h 5.182 l 1.984,4.101 H 0 -4.102 V 10.713 -8.486 Z" /></g><g
           transform="translate(187.8096,60.0986)"
           id="g3897"><path
             inkscape:connector-curvature="0"
             id="path3899"
             style="fill:#a82f09;fill-opacity:1;fill-rule:nonzero;stroke:none"
             d="m 0,0 v 9.84 4.099 h -4.1 -23.777 v 9.838 4.102 h -4.1 -5.345 l 1.999,-4.102 h 3.346 v -6.863 l 4.1,-8.41 V 9.84 H -4.1 V 0 -4.1 H 0 5.635 L 7.619,0 Z" /></g><g
           transform="translate(114.0142,183.3296)"
           id="g3901"><path
             inkscape:connector-curvature="0"
             id="path3903"
             style="fill:#a82f09;fill-opacity:1;fill-rule:nonzero;stroke:none"
             d="m 0,0 h -11.087 l 1.998,-4.1 H 0 4.1 V 0 27.879 H 0 Z" /></g><g
           transform="translate(225.5283,171.6128)"
           id="g3905"><path
             inkscape:connector-curvature="0"
             id="path3907"
             style="fill:#a82f09;fill-opacity:1;fill-rule:nonzero;stroke:none"
             d="m 0,0 v -4.1 -9.838 h -9.84 -4.101 v -4.1 -9.839 -4.1 -13.94 h 4.101 v 13.94 H 8.377 l 1.982,4.1 H -9.84 v 9.839 H 0 4.1 15.119 l 1.985,4.1 H 4.1 V -4.1 H 18.037 V 0 H 4.1 Z" /></g><g
           transform="translate(225.5283,129.7959)"
           id="g3909"><path
             inkscape:connector-curvature="0"
             id="path3911"
             style="fill:#a82f09;fill-opacity:1;fill-rule:nonzero;stroke:none"
             d="M 0,0 V -7.477 L 3.617,0 Z" /></g><g
           transform="translate(201.749,125.6963)"
           id="g3913"><path
             inkscape:connector-curvature="0"
             id="path3915"
             style="fill:#a82f09;fill-opacity:1;fill-rule:nonzero;stroke:none"
             d="m 0,0 v 4.1 23.779 4.1 h -4.102 -9.837 V 55.755 H 0 v 4.1 h -13.939 -4.1 v -4.1 -23.776 -4.1 h 4.1 9.837 V 4.1 H -18.039 V 0 h 13.937 v -9.84 -4.099 H 0 18.67 l 1.982,4.099 H 0 Z" /></g><g
           transform="translate(211.5869,227.3696)"
           id="g3917"><path
             inkscape:connector-curvature="0"
             id="path3919"
             style="fill:#a82f09;fill-opacity:1;fill-rule:nonzero;stroke:none"
             d="m 0,0 v -13.939 -4.1 -23.779 -4.1 -9.839 h -13.939 v -4.099 H 0 4.102 v 4.099 9.839 h 38.445 l 1.984,4.1 H 4.102 v 23.779 h 27.877 v 4.1 H 4.102 V 0 Z" /></g><g
           transform="translate(187.8096,251.1489)"
           id="g3921"><path
             inkscape:connector-curvature="0"
             id="path3923"
             style="fill:#a82f09;fill-opacity:1;fill-rule:nonzero;stroke:none"
             d="M 0,0 H 27.879 V 4.1 H 0 v 9.84 4.1 h -4.1 -9.838 v 9.839 4.1 8.872 c -1.366,-0.057 -2.733,-0.126 -4.101,-0.209 v -8.663 h -41.817 v -4.1 h 41.817 v -9.839 -4.1 h 4.101 9.838 V 4.1 h -23.777 v 9.84 4.1 h -4.1 -37.719 v 13.501 c -1.369,-0.399 -2.736,-0.808 -4.099,-1.231 V 18.04 h -9.84 -4.101 V 13.94 0 h 4.101 v 13.94 h 9.84 4.099 37.719 V 4.1 0 -13.939 h 4.1 V 0 H -4.1 Z" /></g><g
           transform="translate(285.3838,255.249)"
           id="g3925"><path
             inkscape:connector-curvature="0"
             id="path3927"
             style="fill:#a82f09;fill-opacity:1;fill-rule:nonzero;stroke:none"
             d="m 0,0 v 10.181 c -1.355,0.78 -2.721,1.544 -4.1,2.292 V 0 h -9.838 v 9.84 4.099 h -4.099 -13.94 V 9.84 h 13.94 V 0 -4.1 H -13.938 -4.1 0 2.467 L 4.451,0 Z" /></g><g
           transform="translate(183.71,292.1865)"
           id="g3929"><path
             inkscape:connector-curvature="0"
             id="path3931"
             style="fill:#a82f09;fill-opacity:1;fill-rule:nonzero;stroke:none"
             d="m 0,0 v -9.059 -4.1 h 4.1 9.838 v -13.939 h 4.101 v 13.939 h 13.94 v 4.1 H 18.039 13.938 4.1 v 9 C 2.734,-0.027 1.369,-0.006 0,0" /></g><g
           transform="translate(271.4463,227.3696)"
           id="g3933"><path
             inkscape:connector-curvature="0"
             id="path3935"
             style="fill:#a82f09;fill-opacity:1;fill-rule:nonzero;stroke:none"
             d="m 0,0 v 9.84 h 9.662 l 1.983,4.1 H 0 -4.1 -13.939 v 13.939 h -4.1 V 13.94 H -31.98 v -4.1 h 13.941 4.1 9.839 V 0 -4.1 H 0 2.918 L 4.9,0 Z" /></g><g
           transform="translate(313.0742,202.3442)"
           id="g3937"><path
             inkscape:connector-curvature="0"
             id="path3939"
             style="fill:#d10819;fill-opacity:1;fill-rule:nonzero;stroke:none"
             d="m 0,0 c -82.922,45.586 -183.398,45.586 -266.316,0 11.742,-22.277 27.879,-54.153 39.828,-76.648 69.309,39.137 122.329,39.804 192.914,0.361 C -22.949,-52.469 -9.824,-23.594 0,0" /></g><g
           transform="translate(132.6943,167.3857)"
           id="g3941"><path
             inkscape:connector-curvature="0"
             id="path3943"
             style="fill:#ffffff;fill-opacity:1;fill-rule:nonzero;stroke:none"
             d="M 0,0 C -3.616,14.472 -7.242,28.942 -10.858,43.413 -3.312,45.298 0.491,46.095 8.136,47.399 10.64,32.694 13.144,17.99 15.652,3.289 9.357,2.215 6.219,1.558 0,0" /></g><g
           transform="translate(98.2856,179.0605)"
           id="g3945"><path
             inkscape:connector-curvature="0"
             id="path3947"
             style="fill:#ffffff;fill-opacity:1;fill-rule:nonzero;stroke:none"
             d="M 0,0 C 0.603,0.237 0.904,0.357 1.506,0.59 3.562,1.386 4.893,2.329 5.499,3.45 6.101,4.571 6.066,6.097 5.372,8.026 4.682,9.951 3.78,11.096 2.662,11.444 1.542,11.793 -0.162,11.552 -2.417,10.672 -3.046,10.426 -3.359,10.303 -3.988,10.054 -2.392,6.029 -1.596,4.021 0,0 m 6.616,-10.538 c -0.844,-0.325 -1.263,-0.491 -2.104,-0.823 1.398,-3.526 2.096,-5.289 3.499,-8.818 -6.022,-2.389 -8.996,-3.705 -14.864,-6.577 -6.559,13.394 -13.124,26.787 -19.684,40.18 8.069,3.959 12.178,5.744 20.485,8.946 8.369,3.22 14.985,3.988 19.525,2.789 4.54,-1.197 7.626,-5.147 9.404,-11.651 1.779,-6.509 1.212,-11.464 -1.489,-14.946 -2.702,-3.481 -7.61,-6.343 -14.772,-9.1" /></g><g
           transform="translate(148.3569,203.1973)"
           id="g3949"><path
             inkscape:connector-curvature="0"
             id="path3951"
             style="fill:#ffffff;fill-opacity:1;fill-rule:nonzero;stroke:none"
             d="m 0,0 c -0.736,4.996 -1.105,7.495 -1.837,12.485 14.752,1.819 29.135,2.671 44.003,2.612 -0.139,-5.051 -0.21,-7.57 -0.349,-12.618 -7.067,-7.153 -10.344,-10.87 -16.36,-18.482 0.019,-0.457 0.031,-0.682 0.051,-1.135 6.306,0.274 9.459,0.298 15.77,0.124 -0.143,-5.051 -0.21,-7.57 -0.349,-12.621 -12.118,0.341 -24.263,-0.38 -36.253,-2.147 -0.702,4.757 -1.051,7.134 -1.748,11.892 5.28,8.446 8.204,12.6 14.626,20.678 C 17.522,1.243 17.506,1.469 17.47,1.92 10.463,1.411 6.964,1.026 0,0" /></g><g
           transform="translate(194.8359,205.498)"
           id="g3953"><path
             inkscape:connector-curvature="0"
             id="path3955"
             style="fill:#ffffff;fill-opacity:1;fill-rule:nonzero;stroke:none"
             d="M 0,0 C 0.238,5.043 0.356,7.566 0.595,12.609 15.453,11.564 29.758,9.634 44.363,6.708 43.255,1.783 42.7,-0.677 41.595,-5.605 33.244,-11.258 29.299,-14.272 21.914,-20.586 l -0.166,-1.125 c 6.255,-0.943 9.373,-1.53 15.568,-2.921 -1.109,-4.927 -1.66,-7.387 -2.769,-12.314 -11.848,2.661 -23.922,4.285 -36.052,4.86 0.222,4.805 0.341,7.205 0.567,12.007 6.786,7.276 10.454,10.794 18.313,17.489 0.056,0.451 0.079,0.678 0.135,1.129 C 10.525,-0.622 7.02,-0.328 0,0" /></g><g
           transform="translate(264.7266,192.1851)"
           id="g3957"><path
             inkscape:connector-curvature="0"
             id="path3959"
             style="fill:#ffffff;fill-opacity:1;fill-rule:nonzero;stroke:none"
             d="m 0,0 c -3.248,-5.479 -4.837,-8.233 -7.942,-13.778 2.812,-0.963 4.213,-1.471 7.002,-2.528 1.206,6.228 1.772,9.353 2.834,15.62 C 1.137,-0.409 0.761,-0.274 0,0 m -31.644,-24.498 c 7.083,13.715 14.571,27.044 22.591,40.232 C 0.424,12.926 9.737,9.562 18.82,5.667 16.686,-9.654 14.039,-24.744 10.826,-39.88 c -5.918,2.901 -8.921,4.227 -14.993,6.631 0.265,2.108 0.388,3.166 0.63,5.277 -4.077,1.585 -6.129,2.325 -10.265,3.692 -1.077,-1.809 -1.608,-2.714 -2.67,-4.532 -6.017,1.958 -9.055,2.821 -15.172,4.314" /></g><g
           transform="translate(67.7017,280.436)"
           id="g3961"><path
             inkscape:connector-curvature="0"
             id="path3963"
             style="fill:#990013;fill-opacity:1;fill-rule:nonzero;stroke:none"
             d="M 0,0 -1.806,-1.032 -0.07,-4.07 1.736,-3.039 C 3.621,-1.985 1.866,1.088 0,0 M 3.56,-10.426 0.452,-12.201 -6.57,0.093 -1.656,2.9 C 1.348,4.616 4.081,3.298 5.321,1.127 6.57,-1.061 6.3,-4.094 3.33,-5.79 L 1.507,-6.832 Z" /></g><g
           transform="translate(81.397,283.9106)"
           id="g3965"><path
             inkscape:connector-curvature="0"
             id="path3967"
             style="fill:#990013;fill-opacity:1;fill-rule:nonzero;stroke:none"
             d="M 0,0 C 2.042,0.971 0.65,3.897 -1.392,2.927 L -3.289,2.024 -1.897,-0.902 Z M 9.127,-4.055 5.099,-5.971 0.004,-3.41 -0.574,-3.685 1.359,-7.75 -1.911,-9.304 -7.993,3.487 -2.88,5.918 C -0.243,7.172 2.374,6.933 3.873,3.968 4.998,1.601 4.676,-0.191 3.354,-1.418 Z" /></g><g
           transform="translate(92.7134,285.645)"
           id="g3969"><path
             inkscape:connector-curvature="0"
             id="path3971"
             style="fill:#990013;fill-opacity:1;fill-rule:nonzero;stroke:none"
             d="M 0,0 C 0.74,-1.923 5.019,-0.228 4.259,1.688 L 2.402,6.375 C 1.587,8.377 -2.631,6.641 -1.857,4.687 Z m -1.528,10.048 c 2.735,1.083 6.066,0.66 7.259,-2.354 L 7.589,3.007 C 8.783,-0.006 6.664,-2.589 3.93,-3.672 1.195,-4.755 -2.136,-4.333 -3.33,-1.319 l -1.857,4.687 c -1.201,3.032 0.925,5.596 3.659,6.68" /></g><g
           transform="translate(108.3843,297.0493)"
           id="g3973"><path
             inkscape:connector-curvature="0"
             id="path3975"
             style="fill:#990013;fill-opacity:1;fill-rule:nonzero;stroke:none"
             d="M 0,0 C -1.328,1.567 -4.198,0.174 -3.625,-1.595 L -2.133,-6.2 c 0.666,-2.055 4.598,-0.759 3.939,1.276 l -0.142,0.438 -2.15,-0.697 -0.944,2.912 5.423,1.756 1.085,-3.348 c 1.005,-3.102 -1.089,-5.463 -3.791,-6.338 -2.664,-0.863 -5.821,-0.204 -6.826,2.898 l -1.492,4.604 c -0.986,3.045 1.184,5.43 3.848,6.293 1.751,0.567 3.983,0.491 5.612,-1.357 z" /></g><g
           transform="translate(120.7163,298.1733)"
           id="g3977"><path
             inkscape:connector-curvature="0"
             id="path3979"
             style="fill:#990013;fill-opacity:1;fill-rule:nonzero;stroke:none"
             d="M 0,0 C 2.186,0.576 1.36,3.71 -0.826,3.134 L -2.857,2.599 -2.032,-0.535 Z M 8.22,-5.677 3.905,-6.813 -0.628,-3.352 -1.247,-3.515 -0.1,-7.868 -3.602,-8.791 -7.21,4.908 -1.735,6.35 C 1.09,7.094 3.618,6.374 4.541,3.183 5.209,0.648 4.561,-1.054 3.034,-2.015 Z" /></g><g
           transform="translate(132.9102,303.6743)"
           id="g3981"><path
             inkscape:connector-curvature="0"
             id="path3983"
             style="fill:#990013;fill-opacity:1;fill-rule:nonzero;stroke:none"
             d="M 0,0 -0.097,-4.246 1.981,-3.824 0.255,0.052 Z M -2.287,3.619 0.909,4.268 8.689,-8.606 4.925,-9.371 3.458,-6.77 -0.249,-7.522 -0.545,-10.482 -4.31,-11.247 Z" /></g><g
           transform="translate(146.6528,295.8462)"
           id="g3985"><path
             inkscape:connector-curvature="0"
             id="path3987"
             style="fill:#990013;fill-opacity:1;fill-rule:nonzero;stroke:none"
             d="m 0,0 -3.545,-0.492 -1.945,14.023 3.545,0.491 3.902,-6.443 2.02,7.265 3.545,0.491 L 9.467,1.313 5.902,0.818 5.361,4.862 5.226,7.729 5.065,7.728 3.891,2.659 1.455,2.321 -1.095,6.873 -1.23,6.834 -0.561,4.041 Z" /></g><g
           transform="translate(162.4414,297.749)"
           id="g3989"><path
             inkscape:connector-curvature="0"
             id="path3991"
             style="fill:#990013;fill-opacity:1;fill-rule:nonzero;stroke:none"
             d="m 0,0 -3.57,-0.259 -1.026,14.119 3.57,0.26 3.473,-6.684 2.49,7.117 3.569,0.26 L 9.533,0.693 5.943,0.432 5.667,4.502 5.719,7.373 5.558,7.381 4.056,2.4 1.603,2.222 -0.644,6.93 -0.782,6.9 -0.296,4.069 Z" /></g><g
           transform="translate(174.4551,312.6587)"
           id="g3993"><path
             inkscape:connector-curvature="0"
             id="path3995"
             style="fill:#990013;fill-opacity:1;fill-rule:nonzero;stroke:none"
             d="M 0,0 3.578,0.099 3.967,-14.054 0.389,-14.152 Z" /></g><g
           transform="translate(184.8877,298.6826)"
           id="g3997"><path
             inkscape:connector-curvature="0"
             id="path3999"
             style="fill:#990013;fill-opacity:1;fill-rule:nonzero;stroke:none"
             d="m 0,0 -3.581,0.063 0.248,14.163 3.401,-0.059 3.315,-6.102 1.15,-2.861 0.16,0.017 c 0,0 -0.396,2.448 -0.417,2.448 L 4.389,14.091 7.95,14.028 7.701,-0.135 4.081,-0.071 0.978,5.566 -0.213,8.428 -0.373,8.411 c 0,0 0.452,-2.749 0.472,-2.749 z" /></g><g
           transform="translate(203.5107,307.7085)"
           id="g4001"><path
             inkscape:connector-curvature="0"
             id="path4003"
             style="fill:#990013;fill-opacity:1;fill-rule:nonzero;stroke:none"
             d="m 0,0 c -0.612,1.961 -3.799,1.797 -3.961,-0.056 l -0.421,-4.822 c -0.187,-2.152 3.94,-2.493 4.125,-0.36 l 0.04,0.458 -2.252,0.197 0.267,3.048 5.68,-0.495 -0.307,-3.508 c -0.283,-3.248 -3.133,-4.606 -5.963,-4.358 -2.79,0.243 -5.44,2.081 -5.157,5.329 l 0.422,4.823 c 0.277,3.188 3.207,4.539 5.997,4.295 1.833,-0.16 3.859,-1.1 4.639,-3.437 z" /></g><g
           transform="translate(224.834,297.6211)"
           id="g4005"><path
             inkscape:connector-curvature="0"
             id="path4007"
             style="fill:#990013;fill-opacity:1;fill-rule:nonzero;stroke:none"
             d="m 0,0 c -1.564,-2.059 -3.826,-2.552 -5.579,-2.241 -2.738,0.486 -5.213,2.571 -4.65,5.742 l 0.841,4.748 c 0.56,3.151 3.604,4.277 6.402,3.781 1.714,-0.304 3.652,-1.4 4.335,-4.081 L -1.733,7.297 C -2.371,9.198 -5.554,9.356 -5.861,7.623 L -6.703,2.875 c -0.298,-1.674 2.77,-2.706 3.881,-0.912 z" /></g><g
           transform="translate(230.2109,298.0249)"
           id="g4009"><path
             inkscape:connector-curvature="0"
             id="path4011"
             style="fill:#990013;fill-opacity:1;fill-rule:nonzero;stroke:none"
             d="M 0,0 C -0.502,-1.998 3.969,-3.075 4.451,-1.073 L 5.632,3.826 C 6.118,5.93 1.672,6.94 1.18,4.898 Z M 4.534,9.088 C 7.393,8.4 9.87,6.137 9.111,2.987 L 7.931,-1.912 C 7.172,-5.061 3.954,-5.951 1.097,-5.263 -1.761,-4.574 -4.239,-2.311 -3.48,0.838 l 1.18,4.899 c 0.764,3.169 3.977,4.04 6.834,3.351" /></g><g
           transform="translate(243.2695,289.874)"
           id="g4013"><path
             inkscape:connector-curvature="0"
             id="path4015"
             style="fill:#990013;fill-opacity:1;fill-rule:nonzero;stroke:none"
             d="M 0,0 -3.417,1.068 0.807,14.583 4.052,13.568 5.515,6.783 5.812,3.715 5.972,3.686 c 0,0 0.307,2.46 0.288,2.466 L 8.175,12.28 11.573,11.218 7.349,-2.297 3.894,-1.217 2.504,5.063 2.168,8.144 2.009,8.172 c 0,0 -0.34,-2.764 -0.321,-2.77 z" /></g><g
           transform="translate(267.7256,296.3564)"
           id="g4017"><path
             inkscape:connector-curvature="0"
             id="path4019"
             style="fill:#990013;fill-opacity:1;fill-rule:nonzero;stroke:none"
             d="m 0,0 -1.198,-3.18 -3.573,1.346 -3.8,-10.083 -3.386,1.276 3.8,10.083 -3.573,1.347 1.198,3.18 z" /></g><g
           transform="translate(277.626,288.3857)"
           id="g4021"><path
             inkscape:connector-curvature="0"
             id="path4023"
             style="fill:#990013;fill-opacity:1;fill-rule:nonzero;stroke:none"
             d="m 0,0 -5.713,2.514 -0.854,-1.941 5.255,-2.312 -1.282,-2.912 -5.255,2.312 -0.853,-1.94 5.713,-2.514 -1.363,-3.095 -9.026,3.972 5.712,12.982 9.027,-3.971 z" /></g><g
           transform="translate(278.9414,280.7441)"
           id="g4025"><path
             inkscape:connector-curvature="0"
             id="path4027"
             style="fill:#990013;fill-opacity:1;fill-rule:nonzero;stroke:none"
             d="M 0,0 C 0.491,-2.177 3.24,-3.658 4.016,-2.346 4.413,-1.65 3.46,-0.652 2.497,0.015 0.624,1.366 -0.618,3.609 0.638,6.001 2.036,8.41 4.802,8.647 7.123,7.473 8.658,6.696 9.923,5.518 10.422,3.27 L 7.521,2.72 C 6.913,4.799 4.618,5.892 3.824,4.456 3.553,3.831 4.033,3.139 4.906,2.428 6.948,0.879 8.818,-1.009 7.085,-4.079 5.634,-6.416 2.502,-6.491 0.181,-5.316 c -1.518,0.768 -2.745,2.331 -3.156,4.444 z" /></g><g
           transform="translate(302.1699,279.146)"
           id="g4029"><path
             inkscape:connector-curvature="0"
             id="path4031"
             style="fill:#990013;fill-opacity:1;fill-rule:nonzero;stroke:none"
             d="m 0,0 -1.699,-2.944 -3.308,1.909 -5.387,-9.335 -3.134,1.809 5.386,9.335 -3.307,1.909 1.698,2.944 z" /></g></g></g></g></svg>